<svg id="visual" viewBox="0 0 960 540" width="960" height="540" xmlns="http://www.w3.org/2000/svg" xmlns:xlink="http://www.w3.org/1999/xlink" version="1.1"><path d="M0 348L22.8 346.5C45.7 345 91.3 342 137 340.2C182.7 338.3 228.3 337.7 274 345.5C319.7 353.3 365.3 369.7 411.2 374.5C457 379.3 503 372.7 548.8 362C594.7 351.3 640.3 336.7 686 338.2C731.7 339.7 777.3 357.3 823 366.5C868.7 375.7 914.3 376.3 937.2 376.7L960 377L960 541L937.2 541C914.3 541 868.7 541 823 541C777.3 541 731.7 541 686 541C640.3 541 594.7 541 548.8 541C503 541 457 541 411.2 541C365.3 541 319.7 541 274 541C228.3 541 182.7 541 137 541C91.3 541 45.7 541 22.8 541L0 541Z" fill="#219bc3"></path><path d="M0 367L22.8 369.8C45.7 372.7 91.3 378.3 137 386C182.7 393.7 228.3 403.3 274 410.8C319.7 418.3 365.3 423.7 411.2 415.7C457 407.7 503 386.3 548.8 379.5C594.7 372.7 640.3 380.3 686 386.7C731.7 393 777.3 398 823 392.7C868.7 387.3 914.3 371.7 937.2 363.8L960 356L960 541L937.2 541C914.3 541 868.7 541 823 541C777.3 541 731.7 541 686 541C640.3 541 594.7 541 548.8 541C503 541 457 541 411.2 541C365.3 541 319.7 541 274 541C228.3 541 182.7 541 137 541C91.3 541 45.7 541 22.8 541L0 541Z" fill="#55a9ca"></path><path d="M0 419L22.8 423.7C45.7 428.3 91.3 437.7 137 441.8C182.7 446 228.3 445 274 445.5C319.7 446 365.3 448 411.2 449.2C457 450.3 503 450.7 548.8 441.3C594.7 432 640.3 413 686 404.7C731.7 396.3 777.3 398.7 823 406.2C868.7 413.7 914.3 426.3 937.2 432.7L960 439L960 541L937.2 541C914.3 541 868.7 541 823 541C777.3 541 731.7 541 686 541C640.3 541 594.7 541 548.8 541C503 541 457 541 411.2 541C365.3 541 319.7 541 274 541C228.3 541 182.7 541 137 541C91.3 541 45.7 541 22.8 541L0 541Z" fill="#77b7d2"></path><path d="M0 484L22.8 483.7C45.7 483.3 91.3 482.7 137 482.8C182.7 483 228.3 484 274 483.7C319.7 483.3 365.3 481.7 411.2 476.3C457 471 503 462 548.8 460.3C594.7 458.7 640.3 464.3 686 463.7C731.7 463 777.3 456 823 453.2C868.7 450.3 914.3 451.7 937.2 452.3L960 453L960 541L937.2 541C914.3 541 868.7 541 823 541C777.3 541 731.7 541 686 541C640.3 541 594.7 541 548.8 541C503 541 457 541 411.2 541C365.3 541 319.7 541 274 541C228.3 541 182.7 541 137 541C91.3 541 45.7 541 22.8 541L0 541Z" fill="#95c5d9"></path><path d="M0 486L22.8 486.7C45.7 487.3 91.3 488.7 137 489.5C182.7 490.3 228.3 490.7 274 491.8C319.7 493 365.3 495 411.2 499.2C457 503.3 503 509.7 548.8 512.7C594.7 515.7 640.3 515.3 686 508.5C731.7 501.7 777.3 488.3 823 483.8C868.7 479.3 914.3 483.7 937.2 485.8L960 488L960 541L937.2 541C914.3 541 868.7 541 823 541C777.3 541 731.7 541 686 541C640.3 541 594.7 541 548.8 541C503 541 457 541 411.2 541C365.3 541 319.7 541 274 541C228.3 541 182.7 541 137 541C91.3 541 45.7 541 22.8 541L0 541Z" fill="#b2d3e1"></path></svg>